<svg version="1.1" id="Layer_1" xmlns="http://www.w3.org/2000/svg" xmlns:xlink="http://www.w3.org/1999/xlink" x="0px" y="0px"
	 width="100%" viewBox="0 0 554 143" enable-background="new 0 0 554 143" xml:space="preserve">
<path fill="#FBFBFA" opacity="1.000000" stroke="none" 
	d="
M363.000000,144.000000 
	C242.000000,144.000000 121.500000,144.000000 1.000000,144.000000 
	C1.000000,96.333336 1.000000,48.666668 1.000000,1.000000 
	C185.666672,1.000000 370.333344,1.000000 555.000000,1.000000 
	C555.000000,48.666668 555.000000,96.333336 555.000000,144.000000 
	C491.166656,144.000000 427.333344,144.000000 363.000000,144.000000 
M10.314620,56.736820 
	C12.668867,60.676929 14.498471,65.082230 17.490610,68.456726 
	C23.083570,74.764381 29.351126,80.473869 35.505222,86.598656 
	C33.983482,88.224236 32.893188,89.448479 31.739861,90.610153 
	C27.748911,94.629982 23.599247,98.505913 19.832376,102.724480 
	C18.945177,103.718071 19.320311,105.838821 19.114725,107.441040 
	C20.745506,107.287010 22.462732,107.392067 23.976398,106.887016 
	C24.969744,106.555588 25.674036,105.347717 26.499123,104.523705 
	C34.279472,96.753441 41.978153,88.897896 49.922062,81.298683 
	C51.129063,80.144058 53.471622,80.176514 55.288940,79.659897 
	C54.818913,81.488571 54.913071,83.842110 53.783051,85.056786 
	C48.339596,90.908020 42.442474,96.337700 37.012184,102.200272 
	C35.902782,103.397980 36.106064,105.811592 35.704243,107.664711 
	C37.566196,107.230766 39.981441,107.392105 41.196796,106.262474 
	C47.294495,100.594887 52.977875,94.482353 59.054871,88.790993 
	C60.311058,87.614517 62.621433,87.563660 64.445938,86.994019 
	C63.903385,88.954330 63.962284,91.493614 62.721905,92.782196 
	C53.826920,102.022766 44.667027,111.008316 35.593620,120.077202 
	C34.533298,121.137001 33.175571,122.052704 32.528316,123.326225 
	C31.957943,124.448471 32.188747,125.977913 32.065758,127.327530 
	C33.570366,127.437431 35.193172,127.941040 36.543110,127.535759 
	C37.673607,127.196358 38.499329,125.809052 39.435944,124.861954 
	C45.027630,119.207756 50.612331,113.546654 56.551369,107.531349 
	C63.230667,114.260658 69.464661,120.488548 75.637047,126.776901 
	C80.450760,131.681030 86.251587,134.073471 93.109177,134.028229 
	C98.773499,133.990860 104.438293,134.032425 110.102837,134.019669 
	C118.691666,134.000336 121.170769,131.582611 121.177650,123.112099 
	C121.195511,101.120232 121.259216,79.127876 121.124138,57.136829 
	C121.094818,52.363804 122.409790,48.348248 124.385719,43.966091 
	C128.314590,35.252758 131.042221,25.985239 134.034500,16.870640 
	C134.819336,14.479981 134.754440,11.810358 135.094177,9.156404 
	C122.653625,9.789111 108.417358,14.406582 97.610268,20.733095 
	C95.461151,21.991199 92.709503,22.805241 90.229149,22.821440 
	C66.572227,22.975956 42.913853,22.891409 19.255987,22.930878 
	C13.208810,22.940968 9.975322,25.536245 9.890831,30.907932 
	C9.759966,39.227879 10.045016,47.554363 10.314620,56.736820 
M232.783447,56.844093 
	C231.860367,55.668716 231.013702,54.422642 230.002075,53.329185 
	C222.186569,44.881531 209.382217,42.538174 198.846420,47.587158 
	C188.744003,52.428467 182.785202,63.148529 184.422546,73.676704 
	C186.158340,84.838020 192.611588,92.026817 203.340302,95.156822 
	C213.813019,98.212151 225.050232,94.563927 231.480118,85.970467 
	C238.226532,76.953964 238.637802,67.337090 232.783447,56.844093 
M153.236160,94.866295 
	C154.065460,93.425941 155.533401,92.018692 155.610092,90.539322 
	C155.895584,85.031914 155.724030,79.500816 155.724030,73.978607 
	C160.955948,79.232788 165.381821,84.433342 168.986984,90.151352 
	C172.001984,94.933319 175.792099,95.645729 181.400574,94.350845 
	C175.988586,87.123795 170.826752,80.230782 165.462585,73.067581 
	C167.233002,72.413925 168.343704,72.082909 169.387222,71.605179 
	C174.465317,69.280418 176.588257,64.866203 176.056061,57.845917 
	C175.640564,52.365200 172.504181,47.771713 167.384369,47.001167 
	C161.094864,46.054581 154.659149,46.079575 148.241486,45.681789 
	C148.241486,62.587822 148.241486,78.500175 148.241486,94.872345 
	C149.774612,94.872345 151.059128,94.872345 153.236160,94.866295 
M504.379517,93.484253 
	C507.374908,94.082367 510.370300,94.680481 513.365662,95.278603 
	C513.550171,94.824944 513.734680,94.371284 513.919189,93.917625 
	C508.748474,87.111214 503.577759,80.304810 498.194916,73.219200 
	C499.434875,72.688705 500.174805,72.363754 500.921112,72.054161 
	C506.901672,69.573349 509.524292,65.003830 508.913147,58.122746 
	C508.349335,51.774632 504.776978,47.324699 498.451782,46.647198 
	C492.773438,46.038982 486.978516,46.519073 481.162292,46.519073 
	C481.162292,62.560509 481.162292,78.462730 481.162292,94.502701 
	C483.646912,94.502701 485.839417,94.502701 488.652466,94.502701 
	C488.652466,87.478447 488.652466,80.814255 488.652466,74.150063 
	C489.003754,74.050499 489.355042,73.950928 489.706329,73.851357 
	C494.444611,80.191170 499.182892,86.530991 504.379517,93.484253 
M313.522736,54.015980 
	C310.309509,57.691128 307.096283,61.366276 302.850037,66.222946 
	C302.850037,58.471577 302.850037,52.275242 302.850037,46.227207 
	C299.966370,46.227207 297.694397,46.227207 295.335510,46.227207 
	C295.335510,62.516445 295.335510,78.555618 295.335510,94.645775 
	C297.949768,94.645775 300.215698,94.645775 303.101562,94.645775 
	C303.101562,86.779602 303.101562,79.120667 303.101562,70.284004 
	C308.807281,77.612213 313.697113,83.891708 318.585999,90.171898 
	C322.723511,95.486824 324.633270,96.056541 331.939667,93.920639 
	C325.947876,86.414490 320.226715,78.873680 314.069519,71.707542 
	C311.394196,68.593872 311.669220,66.689102 314.391113,63.882561 
	C319.648193,58.461948 324.521484,52.669071 329.720001,46.844379 
	C321.547424,43.600262 317.779419,48.566212 313.522736,54.015980 
M471.027191,52.821373 
	C471.404999,50.708576 471.782806,48.595783 472.182098,46.362602 
	C462.452881,46.362602 453.587311,46.362602 444.737549,46.362602 
	C444.737549,62.688564 444.737549,78.590782 444.737549,94.646126 
	C453.872314,94.646126 462.632538,94.646126 471.684296,94.646126 
	C471.684296,92.292671 471.684296,90.205971 471.684296,87.392014 
	C465.393158,87.392014 459.185852,87.392014 452.938995,87.392014 
	C452.938995,82.059593 452.938995,77.456223 452.938995,72.062012 
	C459.369385,72.062012 465.576141,72.062012 471.676819,72.062012 
	C471.676819,69.333504 471.676819,67.401917 471.676819,64.884941 
	C465.320099,64.884941 459.248199,64.884941 452.972534,64.884941 
	C452.972534,60.720276 452.972534,57.148750 452.972534,52.992828 
	C458.874939,52.992828 464.496124,52.992828 471.027191,52.821373 
M418.641144,64.944298 
	C417.891815,64.256042 416.554138,63.614021 416.495758,62.871460 
	C416.252197,59.772373 416.393158,56.643066 416.393158,52.955132 
	C422.986145,52.955132 429.052795,52.955132 435.200409,52.955132 
	C435.200409,50.318745 435.200409,48.265217 435.200409,46.363899 
	C426.070068,46.363899 417.341949,46.363899 408.640503,46.363899 
	C408.640503,62.682518 408.640503,78.586647 408.640503,94.529495 
	C417.739807,94.529495 426.460693,94.529495 435.235413,94.529495 
	C435.235413,92.076088 435.235413,90.013885 435.235413,87.352768 
	C428.820953,87.352768 422.751160,87.352768 416.766541,87.352768 
	C416.766541,82.013649 416.766541,77.294502 416.766541,72.125694 
	C423.102325,72.125694 429.033875,72.125694 435.275452,72.125694 
	C435.275452,69.597214 435.275452,67.532906 435.275452,64.959572 
	C429.862213,64.959572 424.740906,64.959572 418.641144,64.944298 
M355.399231,87.560555 
	C352.153656,87.560555 348.908081,87.560555 345.827454,87.560555 
	C345.827454,81.951721 345.827454,77.238647 345.827454,71.958672 
	C352.334808,71.958672 358.405884,71.958672 364.395325,71.958672 
	C364.395325,69.322205 364.395325,67.277466 364.395325,64.700546 
	C357.905609,64.700546 351.830109,64.700546 345.730225,64.700546 
	C345.730225,60.586620 345.730225,57.018024 345.730225,52.943779 
	C352.155273,52.943779 358.243805,52.943779 364.456543,52.943779 
	C364.456543,50.385983 364.456543,48.346313 364.456543,46.225243 
	C355.340637,46.225243 346.587708,46.225243 337.677765,46.225243 
	C337.677765,62.530369 337.677765,78.559471 337.677765,94.903244 
	C342.412109,94.903244 346.729950,94.903252 351.047791,94.903252 
	C355.491119,94.903252 359.934448,94.903244 364.537903,94.903244 
	C364.537903,92.183144 364.537903,90.110489 364.537903,87.560776 
	C361.629700,87.560776 358.995087,87.560776 355.399231,87.560555 
M252.918884,90.614731 
	C260.209656,96.171944 268.416504,97.270935 277.104034,95.263672 
	C285.125702,93.410263 285.980591,91.871323 284.545227,83.517502 
	C271.559418,90.320473 262.620209,90.114906 256.374298,82.869705 
	C251.028854,76.669022 250.318176,66.256905 255.493027,59.677826 
	C257.631500,56.959026 260.916016,54.566944 264.170685,53.417503 
	C271.492004,50.831841 278.409790,53.106293 284.762543,57.483990 
	C286.227051,49.478901 285.920990,48.938972 278.914734,46.460667 
	C266.943878,42.226231 253.541809,46.655346 247.299042,56.908989 
	C240.892593,67.431473 242.962708,81.025536 252.918884,90.614731 
M537.819519,67.664536 
	C535.282410,66.423218 532.659424,65.328812 530.227600,63.907349 
	C526.239197,61.575977 525.102234,57.877182 527.175720,54.738354 
	C529.057678,51.889446 533.741333,51.035530 537.048828,53.081955 
	C538.406921,53.922256 539.559875,55.094212 540.908936,56.199490 
	C542.865295,55.104610 544.679382,54.089371 546.459534,53.093090 
	C543.371948,46.791199 537.976257,44.224476 530.406006,45.042927 
	C524.035278,45.731697 519.207825,49.615376 518.054626,54.979568 
	C516.653992,61.494858 518.712158,66.134491 525.115112,69.999588 
	C528.664001,72.141823 532.835205,73.409264 536.005310,75.964874 
	C537.944763,77.528358 539.834656,81.096550 539.339905,83.197647 
	C538.830261,85.361931 535.639038,87.807564 533.196106,88.412086 
	C528.249695,89.636070 524.650513,86.802574 522.444153,82.132225 
	C520.329102,83.177528 518.452759,84.104858 516.735535,84.953560 
	C517.843628,93.807625 526.559814,96.741005 533.936218,96.077011 
	C541.986694,95.352341 547.283264,90.433228 548.090088,83.179535 
	C548.951355,75.435303 544.806213,71.072533 537.819519,67.664536 
M375.620270,45.952335 
	C373.365509,45.952335 371.110748,45.952335 368.830841,45.952335 
	C368.830841,48.681004 368.830841,50.719929 368.830841,53.204960 
	C373.168976,53.204960 377.094421,53.204960 381.697357,53.204960 
	C381.697357,67.308922 381.697357,80.970360 381.697357,94.547050 
	C384.643250,94.547050 386.877686,94.547050 389.601013,94.547050 
	C389.601013,80.650185 389.601013,67.097176 389.601013,53.082077 
	C394.000092,53.082077 397.918274,53.082077 402.144470,53.082077 
	C402.144470,50.547176 402.144470,48.486115 402.144470,45.952324 
	C393.458496,45.952324 385.023224,45.952324 375.620270,45.952335 
M359.397583,113.054092 
	C358.874847,114.447830 358.139252,115.801239 357.866241,117.242287 
	C356.696625,123.416138 359.589355,129.169998 365.035675,131.795929 
	C370.409851,134.387070 377.016876,133.185974 381.133728,128.869415 
	C385.187225,124.619270 385.911926,118.196045 382.905762,113.163788 
	C379.819946,107.998215 373.686951,105.141121 367.879639,107.061897 
	C364.919830,108.040855 362.481323,110.595985 359.397583,113.054092 
M190.697906,132.645142 
	C197.569748,129.861664 201.022308,125.249336 200.685318,119.302856 
	C200.352768,113.434853 196.346344,108.425255 190.631516,107.025528 
	C184.956696,105.635612 180.038208,107.083511 176.269028,111.629715 
	C172.913193,115.677345 172.359161,121.692421 175.013611,126.152000 
	C178.368301,131.788055 183.481583,133.855606 190.697906,132.645142 
M494.451874,107.842972 
	C485.505524,104.892067 477.810364,108.210762 475.441803,116.041466 
	C473.256622,123.265938 477.519928,130.691818 485.002106,132.693726 
	C491.318909,134.383804 498.183990,131.221451 500.883270,125.378181 
	C503.787781,119.090645 501.748413,112.998070 494.451874,107.842972 
M440.518829,110.595993 
	C442.089630,111.063164 443.634308,111.712914 445.239075,111.942924 
	C446.665039,112.147301 448.157715,111.886124 450.850830,111.783623 
	C444.290405,105.625534 437.214264,105.153870 431.854065,109.315086 
	C426.740265,113.284988 425.329498,121.168159 428.699280,126.943710 
	C431.892578,132.416718 439.459625,134.754028 445.843475,132.239182 
	C450.893768,130.249664 452.911255,125.764221 451.396332,119.260628 
	C450.193939,119.260628 448.850098,119.056099 447.598358,119.308479 
	C445.712189,119.688782 443.890442,120.388397 442.041290,120.952278 
	C443.707031,121.761528 445.380493,122.555641 447.030365,123.396011 
	C447.283264,123.524818 447.427399,123.867035 448.464630,125.166054 
	C446.334045,126.511292 444.471252,128.421112 442.285889,128.921173 
	C437.030640,130.123718 432.644135,126.869484 431.636536,121.673058 
	C430.568909,116.167160 433.371704,112.316811 440.518829,110.595993 
M393.429108,109.999046 
	C392.284637,109.000603 391.140137,108.002159 389.070770,106.196838 
	C389.070770,114.671776 388.969025,121.778099 389.171783,128.875732 
	C389.205261,130.047150 390.572754,131.180466 391.323761,132.331390 
	C391.937805,131.208252 393.014465,130.111938 393.081421,128.957108 
	C393.304657,125.105522 393.165955,121.232956 393.165955,115.861092 
	C399.931641,122.308609 405.453491,127.570793 411.953766,133.765411 
	C411.953766,124.974876 412.055939,117.846710 411.856171,110.727013 
	C411.821655,109.497032 410.506531,108.302971 409.782928,107.092308 
	C409.140320,108.384232 408.033783,109.644691 407.943604,110.974083 
	C407.690094,114.711571 407.855164,118.477440 407.855164,123.791710 
	C402.469757,118.633141 398.215271,114.557861 393.429108,109.999046 
M225.437424,131.158783 
	C226.159073,131.623184 226.880707,132.087601 227.952286,132.777222 
	C227.952286,124.875557 227.895020,117.562950 227.979675,110.251991 
	C228.014893,107.210869 226.856903,106.496613 223.877502,107.737862 
	C223.877502,112.921646 223.877502,117.999069 223.877502,123.825493 
	C220.468643,120.602417 217.617325,117.916183 214.777054,115.218307 
	C211.832443,112.421310 208.898544,109.613029 205.052139,105.943634 
	C205.052139,114.821228 204.953033,122.394531 205.175949,129.958344 
	C205.204224,130.917572 206.919067,131.827103 207.852524,132.759659 
	C208.281311,132.464493 208.710083,132.169327 209.138870,131.874161 
	C209.138870,126.816132 209.138870,121.758110 209.138870,115.673431 
	C214.892395,121.151665 219.892670,125.912689 225.437424,131.158783 
M522.885437,124.765121 
	C521.657776,128.798004 518.641785,129.715775 515.022034,128.871399 
	C511.413940,128.029755 510.814178,125.116196 510.870483,121.862022 
	C510.953186,117.079933 510.891754,112.295349 510.891754,107.511833 
	C510.397095,107.209663 509.902435,106.907494 509.407776,106.605324 
	C508.405823,107.669365 506.580841,108.704010 506.541626,109.802422 
	C506.352203,115.106003 506.291626,120.464928 506.863220,125.730652 
	C507.432434,130.974640 511.218994,133.315811 517.446838,133.145081 
	C523.308044,132.984406 526.762695,130.418198 527.145264,125.250587 
	C527.525085,120.120178 527.494080,114.938202 527.239807,109.798782 
	C527.185059,108.691986 525.403687,107.670601 524.417664,106.609871 
	C523.939331,106.908867 523.460938,107.207855 522.982544,107.506851 
	C522.982544,112.966309 522.982544,118.425766 522.885437,124.765121 
M466.529083,107.519554 
	C463.270233,107.345619 460.011353,107.171684 456.181183,106.967262 
	C456.181183,115.069710 456.076233,122.516655 456.306366,129.953217 
	C456.337097,130.946182 458.064209,131.886658 459.005707,132.851440 
	C459.371704,132.540802 459.737701,132.230164 460.103699,131.919525 
	C460.237518,128.878769 460.371338,125.838013 460.522614,122.401093 
	C471.242889,132.006668 471.242889,132.006668 473.074799,131.321426 
	C470.688080,128.128754 468.315491,124.954987 465.953522,121.795410 
	C472.383636,116.698952 472.691132,112.451088 466.529083,107.519554 
M326.247345,132.132919 
	C327.459747,132.132919 328.672119,132.132919 330.488007,132.132919 
	C326.339264,123.263031 322.511353,115.079094 318.235901,105.938347 
	C313.940582,115.126434 310.051361,123.445770 306.162170,131.765106 
	C306.610687,132.194778 307.059204,132.624466 307.507721,133.054153 
	C308.964966,131.830673 310.979797,130.882111 311.750000,129.319901 
	C312.934387,126.917740 314.250031,126.137405 316.960663,125.876091 
	C321.744659,125.414902 324.450317,127.186195 326.247345,132.132919 
M151.431046,129.032242 
	C155.661621,133.103348 160.640778,134.093079 166.150116,132.407974 
	C169.717026,131.316986 169.859894,130.830231 168.764389,126.787804 
	C162.029190,129.909409 157.633972,129.795593 154.706070,126.057053 
	C151.856445,122.418495 151.743073,118.336693 154.147766,114.443588 
	C156.788895,110.167732 161.128052,109.739113 169.864319,112.095261 
	C169.118851,110.248428 168.157227,108.245926 166.598419,107.512329 
	C161.438126,105.083809 154.772186,106.793961 151.161545,111.015953 
	C146.986771,115.897591 146.909882,122.014931 151.431046,129.032242 
M269.672302,109.784813 
	C269.661896,113.950615 269.805786,118.124016 269.601074,122.280251 
	C269.357300,127.231194 267.152588,129.369797 262.955505,129.131622 
	C258.427002,128.874634 257.121307,125.926735 257.103455,121.978447 
	C257.081726,117.180046 257.098297,112.381470 257.098297,107.582970 
	C256.606079,107.298431 256.113892,107.013893 255.621674,106.729355 
	C254.716232,107.781372 253.095444,108.790779 253.029800,109.892815 
	C252.752945,114.540909 252.799118,119.222450 252.992126,123.880775 
	C253.240234,129.868942 256.440735,132.835236 262.557190,133.108902 
	C269.322968,133.411621 273.335663,130.590775 273.758728,124.510185 
	C274.148315,118.910469 273.841583,113.262299 273.841583,106.281769 
	C271.899170,107.491104 270.799896,108.175499 269.672302,109.784813 
M243.628296,132.619888 
	C245.334961,130.209747 248.273636,127.853264 248.381622,125.373505 
	C248.478363,123.151978 245.600082,120.670227 243.746994,118.555054 
	C242.939941,117.633865 241.076080,117.625809 240.296722,116.696198 
	C239.202026,115.390472 238.670639,113.612503 237.898331,112.036514 
	C239.630524,111.742714 241.354034,111.306213 243.097656,111.199905 
	C244.512283,111.113663 245.951080,111.423988 248.269531,111.642250 
	C245.645569,106.482788 242.060074,105.745552 238.719727,106.912064 
	C236.456635,107.702377 233.988602,110.078491 233.162201,112.317451 
	C231.813782,115.970734 234.396362,118.533531 237.622406,120.207024 
	C238.508591,120.666725 239.391342,121.135750 240.296356,121.555939 
	C242.861267,122.746796 245.586838,124.287743 243.476776,127.455048 
	C241.658936,130.183701 238.987137,129.357239 236.505356,127.537788 
	C235.518738,126.814484 233.958298,126.873932 231.671082,126.351234 
	C234.206390,132.997665 238.217148,133.581497 243.628296,132.619888 
M532.979675,119.506096 
	C532.979675,123.645706 532.979675,127.785316 532.979675,132.086517 
	C534.325928,132.086517 536.085022,132.211349 536.107117,132.068237 
	C536.647095,128.567352 537.002563,125.037987 537.386841,121.551903 
	C546.336365,120.540611 548.700012,118.632324 548.053711,113.054764 
	C547.428528,107.660049 543.055176,106.040436 532.979614,107.708725 
	C532.979614,111.253525 532.979614,114.884384 532.979675,119.506096 
M308.718231,110.259148 
	C309.600372,107.739952 308.485626,106.971344 306.081268,107.050941 
	C303.087219,107.150047 300.062012,106.837021 297.098816,107.154755 
	C295.122742,107.366646 293.231415,108.368813 291.302155,109.017303 
	C293.116394,109.646393 294.931641,110.272644 296.743896,110.907417 
	C297.036285,111.009834 297.315369,111.150169 298.083740,111.480988 
	C298.083740,118.183296 298.083740,125.097176 298.083740,131.856125 
	C301.305603,132.929855 302.511047,132.191376 302.419800,129.073837 
	C302.246338,123.148056 302.369537,117.213593 302.369537,111.090668 
	C304.689850,110.937462 306.321991,110.829689 308.718231,110.259148 
M283.904053,127.374771 
	C283.869263,121.572739 283.944794,115.765945 283.694855,109.973190 
	C283.651459,108.967194 282.232758,108.020531 281.449249,107.046463 
	C280.701935,107.888634 279.325867,108.716270 279.306000,109.575264 
	C279.134552,116.994865 279.207367,124.420128 279.207367,132.006424 
	C283.984253,132.006424 288.326050,132.006424 292.667816,132.006424 
	C292.898102,131.603622 293.128387,131.200806 293.358673,130.798004 
	C292.365540,130.018097 291.470886,128.809982 290.357269,128.553772 
	C288.455658,128.116257 286.416656,128.275772 283.904053,127.374771 
M328.095520,108.451469 
	C330.024872,109.656441 331.954193,110.861412 334.826202,112.655136 
	C334.826202,118.312721 334.826202,125.192993 334.826202,131.901443 
	C338.347137,133.011108 339.138245,131.728760 339.067719,128.896484 
	C338.920166,122.974640 339.022980,117.046555 339.022980,111.071129 
	C340.678833,110.963181 341.761169,111.131729 342.629547,110.776817 
	C343.769806,110.310745 344.741547,109.432297 345.785736,108.731201 
	C344.770599,108.175529 343.754608,107.143494 342.740509,107.145393 
	C337.962982,107.154327 333.185974,107.446693 328.095520,108.451469 
M352.952301,123.455338 
	C352.951385,118.964745 353.130707,114.461853 352.825439,109.992050 
	C352.747070,108.844391 351.140472,107.801094 350.235931,106.709854 
	C349.837921,107.016022 349.439941,107.322197 349.041931,107.628365 
	C349.041931,115.707436 349.041931,123.786507 349.041931,131.865585 
	C349.436371,132.165207 349.830841,132.464828 350.225281,132.764450 
	C351.133301,131.651428 352.460144,130.664001 352.841339,129.392975 
	C353.299103,127.866806 352.951324,126.099007 352.952301,123.455338 
z"/>
<path fill="#4C2D1A" opacity="1.000000" stroke="none" 
	d="
M10.234167,56.307449 
	C10.045016,47.554363 9.759966,39.227879 9.890831,30.907932 
	C9.975322,25.536245 13.208810,22.940968 19.255987,22.930878 
	C42.913853,22.891409 66.572227,22.975956 90.229149,22.821440 
	C92.709503,22.805241 95.461151,21.991199 97.610268,20.733095 
	C108.417358,14.406582 122.653625,9.789111 135.094177,9.156404 
	C134.754440,11.810358 134.819336,14.479981 134.034500,16.870640 
	C131.042221,25.985239 128.314590,35.252758 124.385719,43.966091 
	C122.409790,48.348248 121.094818,52.363804 121.124138,57.136829 
	C121.259216,79.127876 121.195511,101.120232 121.177650,123.112099 
	C121.170769,131.582611 118.691666,134.000336 110.102837,134.019669 
	C104.438293,134.032425 98.773499,133.990860 93.109177,134.028229 
	C86.251587,134.073471 80.450760,131.681030 75.637047,126.776901 
	C69.464661,120.488548 63.230667,114.260658 56.551369,107.531349 
	C50.612331,113.546654 45.027630,119.207756 39.435944,124.861954 
	C38.499329,125.809052 37.673607,127.196358 36.543110,127.535759 
	C35.193172,127.941040 33.570366,127.437431 32.065758,127.327530 
	C32.188747,125.977913 31.957943,124.448471 32.528316,123.326225 
	C33.175571,122.052704 34.533298,121.137001 35.593620,120.077202 
	C44.667027,111.008316 53.826920,102.022766 62.721905,92.782196 
	C63.962284,91.493614 63.903385,88.954330 64.445938,86.994019 
	C62.621433,87.563660 60.311058,87.614517 59.054871,88.790993 
	C52.977875,94.482353 47.294495,100.594887 41.196796,106.262474 
	C39.981441,107.392105 37.566196,107.230766 35.704239,107.664711 
	C36.106064,105.811592 35.902782,103.397980 37.012184,102.200272 
	C42.442474,96.337700 48.339596,90.908020 53.783051,85.056786 
	C54.913071,83.842110 54.818913,81.488571 55.288940,79.659897 
	C53.471622,80.176514 51.129063,80.144058 49.922062,81.298683 
	C41.978153,88.897896 34.279472,96.753441 26.499123,104.523705 
	C25.674036,105.347717 24.969744,106.555588 23.976398,106.887016 
	C22.462732,107.392067 20.745506,107.287010 19.114725,107.441040 
	C19.320311,105.838821 18.945177,103.718071 19.832376,102.724480 
	C23.599247,98.505913 27.748911,94.629982 31.739861,90.610153 
	C32.893188,89.448479 33.983482,88.224236 35.505222,86.598656 
	C29.351126,80.473869 23.083570,74.764381 17.490610,68.456726 
	C14.498471,65.082230 12.668867,60.676929 10.234167,56.307449 
M76.180962,82.020615 
	C75.455284,84.346397 74.729607,86.672188 73.599503,89.687149 
	C73.154999,93.453850 72.710495,97.220551 72.110664,101.836227 
	C73.828171,122.138512 80.215225,131.545593 100.506119,129.137192 
	C100.671318,129.117584 100.835594,129.090134 101.921440,129.185196 
	C104.087860,129.198700 106.295143,129.480118 108.410286,129.157486 
	C111.015656,128.760071 113.544258,127.859436 116.588440,126.550285 
	C116.540443,123.722710 116.492447,120.895126 116.561424,117.242195 
	C116.572411,112.828491 116.583397,108.414795 116.770767,103.085129 
	C116.710732,98.720047 116.650688,94.354958 116.762321,89.075111 
	C116.706909,84.717026 116.651489,80.358932 116.770279,75.078224 
	C116.770279,68.846771 116.770279,62.615326 116.770279,56.383877 
	C112.491844,60.543289 105.725220,62.052544 104.669441,69.610184 
	C103.411476,72.727562 102.153511,75.844948 100.372704,79.359070 
	C99.136459,81.386414 97.900223,83.413757 96.137299,85.862206 
	C94.426346,87.571045 92.715393,89.279884 90.682640,90.268417 
	C90.697525,88.732048 90.722046,87.195709 90.725273,85.659309 
	C90.731949,82.482887 90.727287,79.306442 90.727287,76.636581 
	C86.685913,76.636581 83.283852,76.636581 79.881783,76.636581 
	C79.720581,76.178345 79.559380,75.720108 79.398178,75.261871 
	C78.480560,77.327675 77.562935,79.393478 76.180962,82.020615 
M73.893234,39.401752 
	C80.660454,38.531746 83.161484,32.598431 88.597748,27.710493 
	C79.714226,27.710493 72.356651,27.710493 64.123558,27.400303 
	C59.746532,27.503635 55.369511,27.606968 50.117256,27.402699 
	C45.743668,27.500744 41.370079,27.598791 36.113068,27.390594 
	C30.428764,27.485510 24.744459,27.580425 18.357864,27.395321 
	C15.222647,27.520166 14.124375,29.465048 14.155596,32.263885 
	C14.199134,36.166965 14.348722,40.068859 14.211105,44.871861 
	C13.669339,63.063171 23.884310,72.876228 42.864265,71.791260 
	C47.909142,70.855972 52.954014,69.920677 58.738811,68.935585 
	C61.988232,67.513771 65.237648,66.091957 67.076149,65.287506 
	C67.076149,60.340004 67.076149,56.895088 67.076149,53.227428 
	C62.758747,53.227428 58.091972,53.227428 52.910046,53.227428 
	C53.898369,51.721352 54.581688,50.680065 55.923672,49.385639 
	C58.683628,47.431049 61.443584,45.476463 64.896515,43.297562 
	C67.647911,42.051182 70.399307,40.804802 73.893234,39.401752 
M83.199722,39.716980 
	C78.402802,45.979202 73.044891,51.929996 71.611206,60.286728 
	C78.728935,54.619843 85.974472,49.819984 95.408699,48.561626 
	C94.056725,58.302776 88.999725,65.346970 83.163681,72.050255 
	C84.267021,72.561440 84.571426,72.834732 84.827370,72.795097 
	C85.472267,72.695213 86.149704,72.556824 86.719162,72.254845 
	C101.248474,64.550079 113.809975,54.675144 121.799599,39.905640 
	C126.306503,31.574253 126.222023,31.527561 119.621819,24.961166 
	C118.205223,23.551823 116.987831,21.771879 115.302368,20.852571 
	C113.716568,19.987625 111.348595,19.248499 109.815689,19.805391 
	C99.224426,23.653135 90.754303,30.520891 83.199722,39.716980 
M81.942589,57.351650 
	C75.192741,61.658764 70.733963,67.613907 68.013870,75.981567 
	C79.396408,71.897095 86.446884,64.955276 89.423561,53.618633 
	C87.133392,54.726822 84.843231,55.835011 81.942589,57.351650 
M124.081688,23.472778 
	C125.049644,24.248730 126.017601,25.024679 127.491516,26.206219 
	C128.455353,21.940802 129.269882,18.336094 130.296371,13.793453 
	C125.660095,14.903440 121.998917,15.779977 118.337738,16.656513 
	C118.165337,17.173317 117.992943,17.690121 117.820541,18.206924 
	C119.740028,19.793669 121.659515,21.380411 124.081688,23.472778 
z"/>
<path fill="#4B2E1D" opacity="1.000000" stroke="none" 
	d="
M232.962860,57.167152 
	C238.637802,67.337090 238.226532,76.953964 231.480118,85.970467 
	C225.050232,94.563927 213.813019,98.212151 203.340302,95.156822 
	C192.611588,92.026817 186.158340,84.838020 184.422546,73.676704 
	C182.785202,63.148529 188.744003,52.428467 198.846420,47.587158 
	C209.382217,42.538174 222.186569,44.881531 230.002075,53.329185 
	C231.013702,54.422642 231.860367,55.668716 232.962860,57.167152 
M225.251648,60.466339 
	C224.640991,59.676781 224.095352,58.825081 223.409470,58.107430 
	C217.667770,52.099819 209.028793,50.754070 201.904526,54.724537 
	C194.905487,58.625210 191.364120,66.769539 193.165039,74.823235 
	C194.861206,82.408310 201.795090,88.197617 209.628479,88.569008 
	C217.721573,88.952713 225.048172,83.873505 227.445007,75.998627 
	C229.019547,70.825455 228.444519,65.796371 225.251648,60.466339 
z"/>
<path fill="#492D1B" opacity="1.000000" stroke="none" 
	d="
M152.789902,94.869324 
	C151.059128,94.872345 149.774612,94.872345 148.241486,94.872345 
	C148.241486,78.500175 148.241486,62.587822 148.241486,45.681789 
	C154.659149,46.079575 161.094864,46.054581 167.384369,47.001167 
	C172.504181,47.771713 175.640564,52.365200 176.056061,57.845917 
	C176.588257,64.866203 174.465317,69.280418 169.387222,71.605179 
	C168.343704,72.082909 167.233002,72.413925 165.462585,73.067581 
	C170.826752,80.230782 175.988586,87.123795 181.400574,94.350845 
	C175.792099,95.645729 172.001984,94.933319 168.986984,90.151352 
	C165.381821,84.433342 160.955948,79.232788 155.724030,73.978607 
	C155.724030,79.500816 155.895584,85.031914 155.610092,90.539322 
	C155.533401,92.018692 154.065460,93.425941 152.789902,94.869324 
M156.059631,63.216110 
	C155.825638,65.510597 156.222504,67.070442 159.168152,66.854729 
	C162.921738,66.579857 166.710495,66.566246 167.794586,61.876396 
	C169.249222,55.583591 164.899399,52.344387 156.059479,53.488838 
	C156.059479,56.379333 156.059479,59.337681 156.059631,63.216110 
z"/>
<path fill="#4A2D1C" opacity="1.000000" stroke="none" 
	d="
M504.150330,93.177528 
	C499.182892,86.530991 494.444611,80.191170 489.706329,73.851357 
	C489.355042,73.950928 489.003754,74.050499 488.652466,74.150063 
	C488.652466,80.814255 488.652466,87.478447 488.652466,94.502701 
	C485.839417,94.502701 483.646912,94.502701 481.162292,94.502701 
	C481.162292,78.462730 481.162292,62.560509 481.162292,46.519073 
	C486.978516,46.519073 492.773438,46.038982 498.451782,46.647198 
	C504.776978,47.324699 508.349335,51.774632 508.913147,58.122746 
	C509.524292,65.003830 506.901672,69.573349 500.921112,72.054161 
	C500.174805,72.363754 499.434875,72.688705 498.194916,73.219200 
	C503.577759,80.304810 508.748474,87.111214 513.919189,93.917625 
	C513.734680,94.371284 513.550171,94.824944 513.365662,95.278603 
	C510.370300,94.680481 507.374908,94.082367 504.150330,93.177528 
M491.492401,66.804489 
	C498.680756,66.501373 501.125641,64.521637 500.652161,59.387524 
	C500.184845,54.320957 496.628967,52.454624 488.953644,53.536369 
	C488.953644,55.918789 488.740417,58.392818 489.019470,60.810009 
	C489.253235,62.834908 490.061920,64.793442 491.492401,66.804489 
z"/>
<path fill="#492C1B" opacity="1.000000" stroke="none" 
	d="
M313.753235,53.744156 
	C317.779419,48.566212 321.547424,43.600262 329.720001,46.844379 
	C324.521484,52.669071 319.648193,58.461948 314.391113,63.882561 
	C311.669220,66.689102 311.394196,68.593872 314.069519,71.707542 
	C320.226715,78.873680 325.947876,86.414490 331.939667,93.920639 
	C324.633270,96.056541 322.723511,95.486824 318.585999,90.171898 
	C313.697113,83.891708 308.807281,77.612213 303.101562,70.284004 
	C303.101562,79.120667 303.101562,86.779602 303.101562,94.645775 
	C300.215698,94.645775 297.949768,94.645775 295.335510,94.645775 
	C295.335510,78.555618 295.335510,62.516445 295.335510,46.227207 
	C297.694397,46.227207 299.966370,46.227207 302.850037,46.227207 
	C302.850037,52.275242 302.850037,58.471577 302.850037,66.222946 
	C307.096283,61.366276 310.309509,57.691128 313.753235,53.744156 
z"/>
<path fill="#523626" opacity="1.000000" stroke="none" 
	d="
M470.572235,52.907101 
	C464.496124,52.992828 458.874939,52.992828 452.972534,52.992828 
	C452.972534,57.148750 452.972534,60.720276 452.972534,64.884941 
	C459.248199,64.884941 465.320099,64.884941 471.676819,64.884941 
	C471.676819,67.401917 471.676819,69.333504 471.676819,72.062012 
	C465.576141,72.062012 459.369385,72.062012 452.938995,72.062012 
	C452.938995,77.456223 452.938995,82.059593 452.938995,87.392014 
	C459.185852,87.392014 465.393158,87.392014 471.684296,87.392014 
	C471.684296,90.205971 471.684296,92.292671 471.684296,94.646126 
	C462.632538,94.646126 453.872314,94.646126 444.737549,94.646126 
	C444.737549,78.590782 444.737549,62.688564 444.737549,46.362602 
	C453.587311,46.362602 462.452881,46.362602 472.182098,46.362602 
	C471.782806,48.595783 471.404999,50.708576 470.572235,52.907101 
z"/>
<path fill="#4F3323" opacity="1.000000" stroke="none" 
	d="
M419.130371,64.951935 
	C424.740906,64.959572 429.862213,64.959572 435.275452,64.959572 
	C435.275452,67.532906 435.275452,69.597214 435.275452,72.125694 
	C429.033875,72.125694 423.102325,72.125694 416.766541,72.125694 
	C416.766541,77.294502 416.766541,82.013649 416.766541,87.352768 
	C422.751160,87.352768 428.820953,87.352768 435.235413,87.352768 
	C435.235413,90.013885 435.235413,92.076088 435.235413,94.529495 
	C426.460693,94.529495 417.739807,94.529495 408.640503,94.529495 
	C408.640503,78.586647 408.640503,62.682518 408.640503,46.363899 
	C417.341949,46.363899 426.070068,46.363899 435.200409,46.363899 
	C435.200409,48.265217 435.200409,50.318745 435.200409,52.955132 
	C429.052795,52.955132 422.986145,52.955132 416.393158,52.955132 
	C416.393158,56.643066 416.252197,59.772373 416.495758,62.871460 
	C416.554138,63.614021 417.891815,64.256042 419.130371,64.951935 
z"/>
<path fill="#4F3323" opacity="1.000000" stroke="none" 
	d="
M355.879852,87.560669 
	C358.995087,87.560776 361.629700,87.560776 364.537903,87.560776 
	C364.537903,90.110489 364.537903,92.183144 364.537903,94.903244 
	C359.934448,94.903244 355.491119,94.903252 351.047791,94.903252 
	C346.729950,94.903252 342.412109,94.903244 337.677765,94.903244 
	C337.677765,78.559471 337.677765,62.530369 337.677765,46.225243 
	C346.587708,46.225243 355.340637,46.225243 364.456543,46.225243 
	C364.456543,48.346313 364.456543,50.385983 364.456543,52.943779 
	C358.243805,52.943779 352.155273,52.943779 345.730225,52.943779 
	C345.730225,57.018024 345.730225,60.586620 345.730225,64.700546 
	C351.830109,64.700546 357.905609,64.700546 364.395325,64.700546 
	C364.395325,67.277466 364.395325,69.322205 364.395325,71.958672 
	C358.405884,71.958672 352.334808,71.958672 345.827454,71.958672 
	C345.827454,77.238647 345.827454,81.951721 345.827454,87.560555 
	C348.908081,87.560555 352.153656,87.560555 355.879852,87.560669 
z"/>
<path fill="#4B2E1D" opacity="1.000000" stroke="none" 
	d="
M252.640869,90.388428 
	C242.962708,81.025536 240.892593,67.431473 247.299042,56.908989 
	C253.541809,46.655346 266.943878,42.226231 278.914734,46.460667 
	C285.920990,48.938972 286.227051,49.478901 284.762543,57.483990 
	C278.409790,53.106293 271.492004,50.831841 264.170685,53.417503 
	C260.916016,54.566944 257.631500,56.959026 255.493027,59.677826 
	C250.318176,66.256905 251.028854,76.669022 256.374298,82.869705 
	C262.620209,90.114906 271.559418,90.320473 284.545227,83.517502 
	C285.980591,91.871323 285.125702,93.410263 277.104034,95.263672 
	C268.416504,97.270935 260.209656,96.171944 252.640869,90.388428 
z"/>
<path fill="#4A2D1C" opacity="1.000000" stroke="none" 
	d="
M538.155273,67.818428 
	C544.806213,71.072533 548.951355,75.435303 548.090088,83.179535 
	C547.283264,90.433228 541.986694,95.352341 533.936218,96.077011 
	C526.559814,96.741005 517.843628,93.807625 516.735535,84.953560 
	C518.452759,84.104858 520.329102,83.177528 522.444153,82.132225 
	C524.650513,86.802574 528.249695,89.636070 533.196106,88.412086 
	C535.639038,87.807564 538.830261,85.361931 539.339905,83.197647 
	C539.834656,81.096550 537.944763,77.528358 536.005310,75.964874 
	C532.835205,73.409264 528.664001,72.141823 525.115112,69.999588 
	C518.712158,66.134491 516.653992,61.494858 518.054626,54.979568 
	C519.207825,49.615376 524.035278,45.731697 530.406006,45.042927 
	C537.976257,44.224476 543.371948,46.791199 546.459534,53.093090 
	C544.679382,54.089371 542.865295,55.104610 540.908936,56.199490 
	C539.559875,55.094212 538.406921,53.922256 537.048828,53.081955 
	C533.741333,51.035530 529.057678,51.889446 527.175720,54.738354 
	C525.102234,57.877182 526.239197,61.575977 530.227600,63.907349 
	C532.659424,65.328812 535.282410,66.423218 538.155273,67.818428 
z"/>
<path fill="#4F3323" opacity="1.000000" stroke="none" 
	d="
M376.104126,45.952332 
	C385.023224,45.952324 393.458496,45.952324 402.144470,45.952324 
	C402.144470,48.486115 402.144470,50.547176 402.144470,53.082077 
	C397.918274,53.082077 394.000092,53.082077 389.601013,53.082077 
	C389.601013,67.097176 389.601013,80.650185 389.601013,94.547050 
	C386.877686,94.547050 384.643250,94.547050 381.697357,94.547050 
	C381.697357,80.970360 381.697357,67.308922 381.697357,53.204960 
	C377.094421,53.204960 373.168976,53.204960 368.830841,53.204960 
	C368.830841,50.719929 368.830841,48.681004 368.830841,45.952335 
	C371.110748,45.952335 373.365509,45.952335 376.104126,45.952332 
z"/>
<path fill="#553B2A" opacity="1.000000" stroke="none" 
	d="
M359.602386,112.746384 
	C362.481323,110.595985 364.919830,108.040855 367.879639,107.061897 
	C373.686951,105.141121 379.819946,107.998215 382.905762,113.163788 
	C385.911926,118.196045 385.187225,124.619270 381.133728,128.869415 
	C377.016876,133.185974 370.409851,134.387070 365.035675,131.795929 
	C359.589355,129.169998 356.696625,123.416138 357.866241,117.242287 
	C358.139252,115.801239 358.874847,114.447830 359.602386,112.746384 
M365.402588,112.678772 
	C364.489746,114.031891 363.307587,115.277443 362.715942,116.758850 
	C361.117645,120.760880 362.686035,125.428879 366.285004,127.616882 
	C369.932922,129.834686 373.546814,129.611801 376.869324,126.886589 
	C380.184753,124.167183 381.087830,119.451996 379.137390,115.640114 
	C376.635010,110.749550 371.933044,109.511612 365.402588,112.678772 
z"/>
<path fill="#513525" opacity="1.000000" stroke="none" 
	d="
M190.298767,132.756897 
	C183.481583,133.855606 178.368301,131.788055 175.013611,126.152000 
	C172.359161,121.692421 172.913193,115.677345 176.269028,111.629715 
	C180.038208,107.083511 184.956696,105.635612 190.631516,107.025528 
	C196.346344,108.425255 200.352768,113.434853 200.685318,119.302856 
	C201.022308,125.249336 197.569748,129.861664 190.298767,132.756897 
M186.573334,110.527992 
	C185.303772,110.897667 183.934189,111.074371 182.782486,111.671410 
	C178.474106,113.904854 176.720795,119.265320 178.732986,123.661278 
	C180.640076,127.827637 185.239151,130.003448 189.472641,128.742172 
	C194.118622,127.357994 197.040161,122.554810 195.875580,117.800598 
	C194.812347,113.460213 191.871979,111.050858 186.573334,110.527992 
z"/>
<path fill="#533828" opacity="1.000000" stroke="none" 
	d="
M494.788818,108.010345 
	C501.748413,112.998070 503.787781,119.090645 500.883270,125.378181 
	C498.183990,131.221451 491.318909,134.383804 485.002106,132.693726 
	C477.519928,130.691818 473.256622,123.265938 475.441803,116.041466 
	C477.810364,108.210762 485.505524,104.892067 494.788818,108.010345 
M495.841003,125.279510 
	C498.355988,121.304565 498.577576,116.973663 495.135986,113.915924 
	C492.989105,112.008492 489.249695,110.930450 486.319946,111.102020 
	C482.324951,111.335960 480.093536,114.677559 479.536469,118.644608 
	C478.973358,122.654770 480.572632,125.891487 484.091003,127.848541 
	C488.266174,130.170944 492.088593,129.281021 495.841003,125.279510 
z"/>
<path fill="#573D2D" opacity="1.000000" stroke="none" 
	d="
M440.100067,110.608749 
	C433.371704,112.316811 430.568909,116.167160 431.636536,121.673058 
	C432.644135,126.869484 437.030640,130.123718 442.285889,128.921173 
	C444.471252,128.421112 446.334045,126.511292 448.464630,125.166054 
	C447.427399,123.867035 447.283264,123.524818 447.030365,123.396011 
	C445.380493,122.555641 443.707031,121.761528 442.041290,120.952278 
	C443.890442,120.388397 445.712189,119.688782 447.598358,119.308479 
	C448.850098,119.056099 450.193939,119.260628 451.396332,119.260628 
	C452.911255,125.764221 450.893768,130.249664 445.843475,132.239182 
	C439.459625,134.754028 431.892578,132.416718 428.699280,126.943710 
	C425.329498,121.168159 426.740265,113.284988 431.854065,109.315086 
	C437.214264,105.153870 444.290405,105.625534 450.850830,111.783623 
	C448.157715,111.886124 446.665039,112.147301 445.239075,111.942924 
	C443.634308,111.712914 442.089630,111.063164 440.100067,110.608749 
z"/>
<path fill="#5C4232" opacity="1.000000" stroke="none" 
	d="
M393.694946,110.240814 
	C398.215271,114.557861 402.469757,118.633141 407.855164,123.791710 
	C407.855164,118.477440 407.690094,114.711571 407.943604,110.974083 
	C408.033783,109.644691 409.140320,108.384232 409.782928,107.092316 
	C410.506531,108.302971 411.821655,109.497032 411.856171,110.727013 
	C412.055939,117.846710 411.953766,124.974876 411.953766,133.765411 
	C405.453491,127.570793 399.931641,122.308609 393.165955,115.861092 
	C393.165955,121.232956 393.304657,125.105522 393.081421,128.957108 
	C393.014465,130.111938 391.937805,131.208252 391.323761,132.331390 
	C390.572754,131.180466 389.205261,130.047150 389.171783,128.875732 
	C388.969025,121.778099 389.070770,114.671776 389.070770,106.196838 
	C391.140137,108.002159 392.284637,109.000603 393.694946,110.240814 
z"/>
<path fill="#4C301F" opacity="1.000000" stroke="none" 
	d="
M225.165192,130.916245 
	C219.892670,125.912689 214.892395,121.151665 209.138870,115.673431 
	C209.138870,121.758110 209.138870,126.816132 209.138870,131.874161 
	C208.710083,132.169327 208.281311,132.464493 207.852524,132.759659 
	C206.919067,131.827103 205.204224,130.917572 205.175949,129.958344 
	C204.953033,122.394531 205.052139,114.821228 205.052139,105.943634 
	C208.898544,109.613029 211.832443,112.421310 214.777054,115.218307 
	C217.617325,117.916183 220.468643,120.602417 223.877502,123.825493 
	C223.877502,117.999069 223.877502,112.921646 223.877502,107.737862 
	C226.856903,106.496613 228.014893,107.210869 227.979675,110.251991 
	C227.895020,117.562950 227.952286,124.875557 227.952286,132.777222 
	C226.880707,132.087601 226.159073,131.623184 225.165192,130.916245 
z"/>
<path fill="#543929" opacity="1.000000" stroke="none" 
	d="
M522.933960,124.325172 
	C522.982544,118.425766 522.982544,112.966309 522.982544,107.506851 
	C523.460938,107.207855 523.939331,106.908867 524.417664,106.609871 
	C525.403687,107.670601 527.185059,108.691986 527.239807,109.798782 
	C527.494080,114.938202 527.525085,120.120178 527.145264,125.250587 
	C526.762695,130.418198 523.308044,132.984406 517.446838,133.145081 
	C511.218994,133.315811 507.432434,130.974640 506.863220,125.730652 
	C506.291626,120.464928 506.352203,115.106003 506.541626,109.802422 
	C506.580841,108.704010 508.405823,107.669365 509.407776,106.605324 
	C509.902435,106.907494 510.397095,107.209663 510.891754,107.511833 
	C510.891754,112.295349 510.953186,117.079933 510.870483,121.862022 
	C510.814178,125.116196 511.413940,128.029755 515.022034,128.871399 
	C518.641785,129.715775 521.657776,128.798004 522.933960,124.325172 
z"/>
<path fill="#553B2A" opacity="1.000000" stroke="none" 
	d="
M466.903381,107.684814 
	C472.691132,112.451088 472.383636,116.698952 465.953522,121.795410 
	C468.315491,124.954987 470.688080,128.128754 473.074799,131.321426 
	C471.242889,132.006668 471.242889,132.006668 460.522614,122.401093 
	C460.371338,125.838013 460.237518,128.878769 460.103699,131.919525 
	C459.737701,132.230164 459.371704,132.540802 459.005707,132.851440 
	C458.064209,131.886658 456.337097,130.946182 456.306366,129.953217 
	C456.076233,122.516655 456.181183,115.069710 456.181183,106.967262 
	C460.011353,107.171684 463.270233,107.345619 466.903381,107.684814 
M465.690277,116.808914 
	C466.803925,111.674393 466.290070,111.061661 460.815735,111.371872 
	C460.815735,113.410263 460.815735,115.465096 460.815735,117.994797 
	C462.487488,117.700203 463.745209,117.478561 465.690277,116.808914 
z"/>
<path fill="#573D2D" opacity="1.000000" stroke="none" 
	d="
M325.978882,131.880737 
	C324.450317,127.186195 321.744659,125.414902 316.960663,125.876091 
	C314.250031,126.137405 312.934387,126.917740 311.750000,129.319901 
	C310.979797,130.882111 308.964966,131.830673 307.507721,133.054153 
	C307.059204,132.624466 306.610687,132.194778 306.162170,131.765106 
	C310.051361,123.445770 313.940582,115.126434 318.235901,105.938347 
	C322.511353,115.079094 326.339264,123.263031 330.488007,132.132919 
	C328.672119,132.132919 327.459747,132.132919 325.978882,131.880737 
z"/>
<path fill="#553B2A" opacity="1.000000" stroke="none" 
	d="
M151.186676,128.744370 
	C146.909882,122.014931 146.986771,115.897591 151.161545,111.015953 
	C154.772186,106.793961 161.438126,105.083809 166.598419,107.512329 
	C168.157227,108.245926 169.118851,110.248428 169.864319,112.095261 
	C161.128052,109.739113 156.788895,110.167732 154.147766,114.443588 
	C151.743073,118.336693 151.856445,122.418495 154.706070,126.057053 
	C157.633972,129.795593 162.029190,129.909409 168.764389,126.787804 
	C169.859894,130.830231 169.717026,131.316986 166.150116,132.407974 
	C160.640778,134.093079 155.661621,133.103348 151.186676,128.744370 
z"/>
<path fill="#4C301F" opacity="1.000000" stroke="none" 
	d="
M269.686462,109.322357 
	C270.799896,108.175499 271.899170,107.491104 273.841583,106.281769 
	C273.841583,113.262299 274.148315,118.910469 273.758728,124.510185 
	C273.335663,130.590775 269.322968,133.411621 262.557190,133.108902 
	C256.440735,132.835236 253.240234,129.868942 252.992126,123.880775 
	C252.799118,119.222450 252.752945,114.540909 253.029800,109.892815 
	C253.095444,108.790779 254.716232,107.781372 255.621674,106.729355 
	C256.113892,107.013893 256.606079,107.298431 257.098297,107.582970 
	C257.098297,112.381470 257.081726,117.180046 257.103455,121.978447 
	C257.121307,125.926735 258.427002,128.874634 262.955505,129.131622 
	C267.152588,129.369797 269.357300,127.231194 269.601074,122.280251 
	C269.805786,118.124016 269.661896,113.950615 269.686462,109.322357 
z"/>
<path fill="#543929" opacity="1.000000" stroke="none" 
	d="
M243.239410,132.748535 
	C238.217148,133.581497 234.206390,132.997665 231.671082,126.351234 
	C233.958298,126.873932 235.518738,126.814484 236.505356,127.537788 
	C238.987137,129.357239 241.658936,130.183701 243.476776,127.455048 
	C245.586838,124.287743 242.861267,122.746796 240.296356,121.555939 
	C239.391342,121.135750 238.508591,120.666725 237.622406,120.207024 
	C234.396362,118.533531 231.813782,115.970734 233.162201,112.317451 
	C233.988602,110.078491 236.456635,107.702377 238.719727,106.912064 
	C242.060074,105.745552 245.645569,106.482788 248.269531,111.642250 
	C245.951080,111.423988 244.512283,111.113663 243.097656,111.199905 
	C241.354034,111.306213 239.630524,111.742714 237.898331,112.036514 
	C238.670639,113.612503 239.202026,115.390472 240.296722,116.696198 
	C241.076080,117.625809 242.939941,117.633865 243.746994,118.555054 
	C245.600082,120.670227 248.478363,123.151978 248.381622,125.373505 
	C248.273636,127.853264 245.334961,130.209747 243.239410,132.748535 
z"/>
<path fill="#4C301F" opacity="1.000000" stroke="none" 
	d="
M532.979614,119.010666 
	C532.979614,114.884384 532.979614,111.253525 532.979614,107.708725 
	C543.055176,106.040436 547.428528,107.660049 548.053711,113.054764 
	C548.700012,118.632324 546.336365,120.540611 537.386841,121.551903 
	C537.002563,125.037987 536.647095,128.567352 536.107117,132.068237 
	C536.085022,132.211349 534.325928,132.086517 532.979675,132.086517 
	C532.979675,127.785316 532.979675,123.645706 532.979614,119.010666 
M543.494324,112.873894 
	C541.639587,112.041176 539.784851,111.208466 537.341187,110.111328 
	C537.341187,113.346436 537.341187,115.374504 537.341187,117.598335 
	C540.573669,117.571953 543.808350,118.245445 543.494324,112.873894 
z"/>
<path fill="#523626" opacity="1.000000" stroke="none" 
	d="
M308.336182,110.490540 
	C306.321991,110.829689 304.689850,110.937462 302.369537,111.090668 
	C302.369537,117.213593 302.246338,123.148056 302.419800,129.073837 
	C302.511047,132.191376 301.305603,132.929855 298.083740,131.856125 
	C298.083740,125.097176 298.083740,118.183296 298.083740,111.480988 
	C297.315369,111.150169 297.036285,111.009834 296.743896,110.907417 
	C294.931641,110.272644 293.116394,109.646393 291.302155,109.017303 
	C293.231415,108.368813 295.122742,107.366646 297.098816,107.154755 
	C300.062012,106.837021 303.087219,107.150047 306.081268,107.050941 
	C308.485626,106.971344 309.600372,107.739952 308.336182,110.490540 
z"/>
<path fill="#5C4232" opacity="1.000000" stroke="none" 
	d="
M284.169708,127.779640 
	C286.416656,128.275772 288.455658,128.116257 290.357269,128.553772 
	C291.470886,128.809982 292.365540,130.018097 293.358673,130.798004 
	C293.128387,131.200806 292.898102,131.603622 292.667816,132.006424 
	C288.326050,132.006424 283.984253,132.006424 279.207367,132.006424 
	C279.207367,124.420128 279.134552,116.994865 279.306000,109.575264 
	C279.325867,108.716270 280.701935,107.888634 281.449249,107.046463 
	C282.232758,108.020531 283.651459,108.967194 283.694855,109.973190 
	C283.944794,115.765945 283.869263,121.572739 284.169708,127.779640 
z"/>
<path fill="#543929" opacity="1.000000" stroke="none" 
	d="
M328.252136,108.044708 
	C333.185974,107.446693 337.962982,107.154327 342.740509,107.145393 
	C343.754608,107.143494 344.770599,108.175529 345.785736,108.731201 
	C344.741547,109.432297 343.769806,110.310745 342.629547,110.776817 
	C341.761169,111.131729 340.678833,110.963181 339.022980,111.071129 
	C339.022980,117.046555 338.920166,122.974640 339.067719,128.896484 
	C339.138245,131.728760 338.347137,133.011108 334.826202,131.901443 
	C334.826202,125.192993 334.826202,118.312721 334.826202,112.655136 
	C331.954193,110.861412 330.024872,109.656441 328.252136,108.044708 
z"/>
<path fill="#4F3323" opacity="1.000000" stroke="none" 
	d="
M352.952301,123.945587 
	C352.951324,126.099007 353.299103,127.866806 352.841339,129.392975 
	C352.460144,130.664001 351.133301,131.651428 350.225281,132.764450 
	C349.830841,132.464828 349.436371,132.165207 349.041931,131.865585 
	C349.041931,123.786507 349.041931,115.707436 349.041931,107.628365 
	C349.439941,107.322197 349.837921,107.016022 350.235931,106.709854 
	C351.140472,107.801094 352.747070,108.844391 352.825439,109.992050 
	C353.130707,114.461853 352.951385,118.964745 352.952301,123.945587 
z"/>
<path fill="#F8F6F5" opacity="1.000000" stroke="none" 
	d="
M83.434784,39.450684 
	C90.754303,30.520891 99.224426,23.653135 109.815689,19.805391 
	C111.348595,19.248499 113.716568,19.987625 115.302368,20.852571 
	C116.987831,21.771879 118.205223,23.551823 119.621819,24.961166 
	C126.222023,31.527561 126.306503,31.574253 121.799599,39.905640 
	C113.809975,54.675144 101.248474,64.550079 86.719162,72.254845 
	C86.149704,72.556824 85.472267,72.695213 84.827370,72.795097 
	C84.571426,72.834732 84.267021,72.561440 83.163681,72.050255 
	C88.999725,65.346970 94.056725,58.302776 95.408699,48.561626 
	C85.974472,49.819984 78.728935,54.619843 71.611206,60.286728 
	C73.044891,51.929996 78.402802,45.979202 83.434784,39.450684 
M112.187866,29.011841 
	C108.776230,27.247847 105.081940,26.992579 102.567215,29.893837 
	C100.833168,31.894430 99.656479,35.117695 99.718445,37.759640 
	C99.808197,41.585846 102.764664,43.949635 106.567276,44.553249 
	C110.400604,45.161743 113.529083,43.595291 115.223320,40.125996 
	C117.190094,36.098614 116.415726,32.392719 112.187866,29.011841 
z"/>
<path fill="#F27F25" opacity="1.000000" stroke="none" 
	d="
M19.060156,27.675341 
	C24.744459,27.580425 30.428764,27.485510 36.560471,27.868271 
	C39.762531,31.273815 42.517197,34.201683 45.227165,37.541664 
	C45.275326,39.547203 45.368187,41.140633 45.451645,42.572777 
	C47.313728,43.010117 48.997440,43.405563 50.985706,43.994926 
	C52.615181,46.005486 53.940094,47.822132 55.265007,49.638779 
	C54.581688,50.680065 53.898369,51.721352 52.910046,53.227428 
	C58.091972,53.227428 62.758747,53.227428 67.076149,53.227428 
	C67.076149,56.895088 67.076149,60.340004 67.076149,65.287506 
	C65.237648,66.091957 61.988232,67.513771 58.222893,68.662849 
	C50.474499,61.097286 43.235176,53.811237 36.012733,46.508484 
	C32.888287,43.349289 30.124805,39.542736 26.108519,40.684959 
	C24.537333,37.542492 23.339195,35.013618 22.018389,32.550526 
	C21.121361,30.877712 20.052290,29.297155 19.060156,27.675341 
z"/>
<path fill="#EA7224" opacity="1.000000" stroke="none" 
	d="
M18.709011,27.535332 
	C20.052290,29.297155 21.121361,30.877712 22.018389,32.550526 
	C23.339195,35.013618 24.537333,37.542492 26.108519,40.684959 
	C30.124805,39.542736 32.888287,43.349289 36.012733,46.508484 
	C43.235176,53.811237 50.474499,61.097286 57.852932,68.687752 
	C52.954014,69.920677 47.909142,70.855972 42.428989,71.360275 
	C39.662918,67.292435 37.332123,63.655567 34.919395,59.634193 
	C34.566708,56.594757 34.295956,53.939823 34.070084,51.724964 
	C31.273252,51.468079 28.413733,51.205433 25.234177,50.899738 
	C21.427069,48.561543 17.939997,46.266403 14.452925,43.971260 
	C14.348722,40.068859 14.199134,36.166965 14.155596,32.263885 
	C14.124375,29.465048 15.222647,27.520166 18.709011,27.535332 
z"/>
<path fill="#EE6B24" opacity="1.000000" stroke="none" 
	d="
M101.000305,129.066345 
	C100.835594,129.090134 100.671318,129.117584 100.506119,129.137192 
	C80.215225,131.545593 73.828171,122.138512 72.539078,101.422012 
	C76.419312,103.032707 79.871124,105.057617 83.266068,107.478287 
	C82.405869,111.057846 84.689491,109.712730 86.032013,110.140884 
	C89.228142,114.024353 92.524849,117.447662 95.530922,121.109550 
	C97.565620,123.588142 99.191551,126.402290 101.000305,129.066345 
z"/>
<path fill="#F48325" opacity="1.000000" stroke="none" 
	d="
M116.594376,104.001091 
	C116.583397,108.414795 116.572411,112.828491 116.091660,117.629807 
	C113.378006,116.593292 111.134117,115.169159 108.836220,113.410194 
	C108.585381,111.430878 108.388542,109.786407 108.209961,108.294395 
	C106.373505,108.068581 104.650543,107.856720 102.745422,107.391159 
	C98.385971,102.430305 94.208664,97.723152 90.269531,92.838959 
	C90.673279,92.104187 90.838860,91.546455 91.004440,90.988724 
	C92.715393,89.279884 94.426346,87.571045 96.572830,86.001907 
	C102.355461,91.608284 107.657288,97.120796 113.097191,102.493500 
	C113.938553,103.324463 115.412804,103.514603 116.594376,104.001091 
z"/>
<path fill="#E76825" opacity="1.000000" stroke="none" 
	d="
M35.001328,60.018700 
	C37.332123,63.655567 39.662918,67.292435 42.009819,71.260796 
	C23.884310,72.876228 13.669339,63.063171 14.332015,44.421562 
	C17.939997,46.266403 21.427069,48.561543 25.341003,51.350075 
	C26.008745,54.408836 26.249624,56.974209 26.463123,59.247959 
	C29.276594,59.501930 32.138962,59.760311 35.001328,60.018700 
z"/>
<path fill="#F37326" opacity="1.000000" stroke="none" 
	d="
M101.460876,129.125778 
	C99.191551,126.402290 97.565620,123.588142 95.530922,121.109550 
	C92.524849,117.447662 89.228142,114.024353 86.420937,110.025452 
	C88.344978,109.995979 89.903275,110.440506 91.862640,110.999435 
	C91.571991,108.992577 91.355217,107.495850 91.512161,105.999786 
	C93.783554,107.026398 95.685410,108.044724 97.577705,109.080528 
	C99.337997,110.044075 101.088081,111.026260 102.896164,112.321754 
	C103.298317,113.163521 103.646965,113.683784 104.043221,114.534500 
	C108.095894,118.968735 112.100960,123.072510 116.106033,127.176285 
	C113.544258,127.859436 111.015656,128.760071 108.410286,129.157486 
	C106.295143,129.480118 104.087860,129.198700 101.460876,129.125778 
z"/>
<path fill="#F38C23" opacity="1.000000" stroke="none" 
	d="
M55.594337,49.512207 
	C53.940094,47.822132 52.615181,46.005486 51.073349,43.600288 
	C50.856438,41.239193 50.856438,39.466652 50.856438,37.979301 
	C48.779411,37.663261 47.025635,37.396408 45.271862,37.129555 
	C42.517197,34.201683 39.762531,31.273815 37.002182,28.021393 
	C41.370079,27.598791 45.743668,27.500744 50.573860,27.863506 
	C52.066883,29.762896 52.987160,31.305227 54.161877,32.620270 
	C57.452866,36.304367 60.848930,39.894604 64.203537,43.521873 
	C61.443584,45.476463 58.683628,47.431049 55.594337,49.512207 
z"/>
<path fill="#F38C23" opacity="1.000000" stroke="none" 
	d="
M116.682571,103.543106 
	C115.412804,103.514603 113.938553,103.324463 113.097191,102.493500 
	C107.657288,97.120796 102.355461,91.608284 96.836182,85.791351 
	C97.900223,83.413757 99.136459,81.386414 100.994446,79.205017 
	C104.480209,80.731110 108.010414,81.946342 106.561684,86.120552 
	C107.839699,86.346954 108.828659,86.343391 109.660118,86.703499 
	C112.004929,87.719009 114.285042,88.883873 116.590652,89.989876 
	C116.650688,94.354958 116.710732,98.720047 116.682571,103.543106 
z"/>
<path fill="#F4971F" opacity="1.000000" stroke="none" 
	d="
M64.550026,43.409718 
	C60.848930,39.894604 57.452866,36.304367 54.161877,32.620270 
	C52.987160,31.305227 52.066883,29.762896 51.011475,28.017307 
	C55.369511,27.606968 59.746532,27.503635 64.578682,27.863556 
	C66.171356,29.866879 67.323349,31.396540 68.443001,32.949516 
	C70.024773,35.143452 71.582626,37.354622 73.150703,39.558422 
	C70.399307,40.804802 67.647911,42.051182 64.550026,43.409718 
z"/>
<path fill="#F59A22" opacity="1.000000" stroke="none" 
	d="
M116.676491,89.532494 
	C114.285042,88.883873 112.004929,87.719009 109.660118,86.703499 
	C108.828659,86.343391 107.839699,86.346954 106.561684,86.120552 
	C108.010414,81.946342 104.480209,80.731110 101.255859,79.006653 
	C102.153511,75.844948 103.411476,72.727562 105.200523,69.342873 
	C107.134811,70.197624 108.447594,71.465218 109.962975,72.406738 
	C112.095245,73.731537 114.377785,74.814484 116.596069,76.000847 
	C116.651489,80.358932 116.706909,84.717026 116.676491,89.532494 
z"/>
<path fill="#ED7924" opacity="1.000000" stroke="none" 
	d="
M102.842659,112.000244 
	C101.088081,111.026260 99.337997,110.044075 97.577705,109.080528 
	C95.685410,108.044724 93.783554,107.026398 91.447586,105.646416 
	C91.204849,103.989235 91.400375,102.686089 91.612770,101.270546 
	C90.155876,101.522842 89.078308,101.709442 87.960068,101.550766 
	C84.440651,95.814301 81.386246,89.939423 74.003929,88.997971 
	C74.729607,86.672188 75.455284,84.346397 76.594467,82.087494 
	C81.349106,85.774910 85.690239,89.395454 90.031364,93.015991 
	C94.208664,97.723152 98.385971,102.430305 102.750313,107.835449 
	C102.905785,109.689049 102.874222,110.844643 102.842659,112.000244 
z"/>
<path fill="#EEAD17" opacity="1.000000" stroke="none" 
	d="
M82.247826,57.147423 
	C84.843231,55.835011 87.133392,54.726822 89.423561,53.618633 
	C86.446884,64.955276 79.396408,71.897095 68.013870,75.981567 
	C70.733963,67.613907 75.192741,61.658764 82.247826,57.147423 
z"/>
<path fill="#F5A31D" opacity="1.000000" stroke="none" 
	d="
M73.521973,39.480087 
	C71.582626,37.354622 70.024773,35.143452 68.443001,32.949516 
	C67.323349,31.396540 66.171356,29.866879 65.016449,28.018650 
	C72.356651,27.710493 79.714226,27.710493 88.597748,27.710493 
	C83.161484,32.598431 80.660454,38.531746 73.521973,39.480087 
z"/>
<path fill="#EF7F22" opacity="1.000000" stroke="none" 
	d="
M90.269531,92.838959 
	C85.690239,89.395454 81.349106,85.774910 76.826645,81.806824 
	C77.562935,79.393478 78.480560,77.327675 79.398178,75.261871 
	C79.559380,75.720108 79.720581,76.178345 79.881783,76.636581 
	C83.283852,76.636581 86.685913,76.636581 90.727287,76.636581 
	C90.727287,79.306442 90.731949,82.482887 90.725273,85.659309 
	C90.722046,87.195709 90.697525,88.732048 90.843536,90.628571 
	C90.838860,91.546455 90.673279,92.104187 90.269531,92.838959 
z"/>
<path fill="#F37326" opacity="1.000000" stroke="none" 
	d="
M73.801712,89.342560 
	C81.386246,89.939423 84.440651,95.814301 87.595177,101.639236 
	C85.904251,101.886841 84.537529,101.700691 83.322929,101.535255 
	C83.322929,103.621422 83.322929,105.351974 83.322929,107.082527 
	C79.871124,105.057617 76.419312,103.032707 72.616745,100.997528 
	C72.710495,97.220551 73.154999,93.453850 73.801712,89.342560 
z"/>
<path fill="#F5A31D" opacity="1.000000" stroke="none" 
	d="
M116.683174,75.539536 
	C114.377785,74.814484 112.095245,73.731537 109.962975,72.406738 
	C108.447594,71.465218 107.134811,70.197624 105.390305,69.037857 
	C105.725220,62.052544 112.491844,60.543289 116.770279,56.383877 
	C116.770279,62.615326 116.770279,68.846771 116.683174,75.539536 
z"/>
<path fill="#E36224" opacity="1.000000" stroke="none" 
	d="
M123.830345,23.219967 
	C121.659515,21.380411 119.740028,19.793669 117.820541,18.206924 
	C117.992943,17.690121 118.165337,17.173317 118.337738,16.656513 
	C121.998917,15.779977 125.660095,14.903440 130.296371,13.793453 
	C129.269882,18.336094 128.455353,21.940802 127.491516,26.206219 
	C126.017601,25.024679 125.049644,24.248730 123.830345,23.219967 
z"/>
<path fill="#ED7924" opacity="1.000000" stroke="none" 
	d="
M116.347237,126.863281 
	C112.100960,123.072510 108.095894,118.968735 104.448288,114.468178 
	C106.167244,113.962608 107.528740,113.853821 108.890228,113.745033 
	C111.134117,115.169159 113.378006,116.593292 116.033173,118.042480 
	C116.492447,120.895126 116.540443,123.722710 116.347237,126.863281 
z"/>
<path fill="#FAFAFA" opacity="1.000000" stroke="none" 
	d="
M225.472061,60.771729 
	C228.444519,65.796371 229.019547,70.825455 227.445007,75.998627 
	C225.048172,83.873505 217.721573,88.952713 209.628479,88.569008 
	C201.795090,88.197617 194.861206,82.408310 193.165039,74.823235 
	C191.364120,66.769539 194.905487,58.625210 201.904526,54.724537 
	C209.028793,50.754070 217.667770,52.099819 223.409470,58.107430 
	C224.095352,58.825081 224.640991,59.676781 225.472061,60.771729 
z"/>
<path fill="#F2F0EF" opacity="1.000000" stroke="none" 
	d="
M156.059555,62.756069 
	C156.059479,59.337681 156.059479,56.379333 156.059479,53.488838 
	C164.899399,52.344387 169.249222,55.583591 167.794586,61.876396 
	C166.710495,66.566246 162.921738,66.579857 159.168152,66.854729 
	C156.222504,67.070442 155.825638,65.510597 156.059555,62.756069 
z"/>
<path fill="#F2F0EF" opacity="1.000000" stroke="none" 
	d="
M491.054230,66.792923 
	C490.061920,64.793442 489.253235,62.834908 489.019470,60.810009 
	C488.740417,58.392818 488.953644,55.918789 488.953644,53.536369 
	C496.628967,52.454624 500.184845,54.320957 500.652161,59.387524 
	C501.125641,64.521637 498.680756,66.501373 491.054230,66.792923 
z"/>
<path fill="#F5F3F3" opacity="1.000000" stroke="none" 
	d="
M365.720825,112.435181 
	C371.933044,109.511612 376.635010,110.749550 379.137390,115.640114 
	C381.087830,119.451996 380.184753,124.167183 376.869324,126.886589 
	C373.546814,129.611801 369.932922,129.834686 366.285004,127.616882 
	C362.686035,125.428879 361.117645,120.760880 362.715942,116.758850 
	C363.307587,115.277443 364.489746,114.031891 365.720825,112.435181 
z"/>
<path fill="#F8F6F5" opacity="1.000000" stroke="none" 
	d="
M186.995422,110.527603 
	C191.871979,111.050858 194.812347,113.460213 195.875580,117.800598 
	C197.040161,122.554810 194.118622,127.357994 189.472641,128.742172 
	C185.239151,130.003448 180.640076,127.827637 178.732986,123.661278 
	C176.720795,119.265320 178.474106,113.904854 182.782486,111.671410 
	C183.934189,111.074371 185.303772,110.897667 186.995422,110.527603 
z"/>
<path fill="#F5F3F3" opacity="1.000000" stroke="none" 
	d="
M495.604736,125.578140 
	C492.088593,129.281021 488.266174,130.170944 484.091003,127.848541 
	C480.572632,125.891487 478.973358,122.654770 479.536469,118.644608 
	C480.093536,114.677559 482.324951,111.335960 486.319946,111.102020 
	C489.249695,110.930450 492.989105,112.008492 495.135986,113.915924 
	C498.577576,116.973663 498.355988,121.304565 495.604736,125.578140 
z"/>
<path fill="#E6E2E0" opacity="1.000000" stroke="none" 
	d="
M465.346619,117.032921 
	C463.745209,117.478561 462.487488,117.700203 460.815735,117.994797 
	C460.815735,115.465096 460.815735,113.410263 460.815735,111.371872 
	C466.290070,111.061661 466.803925,111.674393 465.346619,117.032921 
z"/>
<path fill="#E6E2E0" opacity="1.000000" stroke="none" 
	d="
M543.635681,113.247818 
	C543.808350,118.245445 540.573669,117.571953 537.341187,117.598335 
	C537.341187,115.374504 537.341187,113.346436 537.341187,110.111328 
	C539.784851,111.208466 541.639587,112.041176 543.635681,113.247818 
z"/>
<path fill="#F16D2D" opacity="1.000000" stroke="none" 
	d="
M112.525589,29.226839 
	C116.415726,32.392719 117.190094,36.098614 115.223320,40.125996 
	C113.529083,43.595291 110.400604,45.161743 106.567276,44.553249 
	C102.764664,43.949635 99.808197,41.585846 99.718445,37.759640 
	C99.656479,35.117695 100.833168,31.894430 102.567215,29.893837 
	C105.081940,26.992579 108.776230,27.247847 112.525589,29.226839 
z"/>
<path fill="#FCE9DE" opacity="1.000000" stroke="none" 
	d="
M45.227165,37.541664 
	C47.025635,37.396408 48.779411,37.663261 50.856438,37.979301 
	C50.856438,39.466652 50.856438,41.239193 50.768791,43.406372 
	C48.997440,43.405563 47.313728,43.010117 45.451645,42.572777 
	C45.368187,41.140633 45.275326,39.547203 45.227165,37.541664 
z"/>
<path fill="#FCE9DE" opacity="1.000000" stroke="none" 
	d="
M34.919395,59.634193 
	C32.138962,59.760311 29.276594,59.501930 26.463123,59.247959 
	C26.249624,56.974209 26.008745,54.408836 25.661037,51.393127 
	C28.413733,51.205433 31.273252,51.468079 34.070084,51.724964 
	C34.295956,53.939823 34.566708,56.594757 34.919395,59.634193 
z"/>
<path fill="#FCE9DE" opacity="1.000000" stroke="none" 
	d="
M83.266068,107.478287 
	C83.322929,105.351974 83.322929,103.621422 83.322929,101.535255 
	C84.537529,101.700691 85.904251,101.886841 87.635864,101.984528 
	C89.078308,101.709442 90.155876,101.522842 91.612770,101.270546 
	C91.400375,102.686089 91.204849,103.989235 91.073883,105.645752 
	C91.355217,107.495850 91.571991,108.992577 91.862640,110.999435 
	C89.903275,110.440506 88.344978,109.995979 86.397766,109.666885 
	C84.689491,109.712730 82.405869,111.057846 83.266068,107.478287 
z"/>
<path fill="#FCE9DE" opacity="1.000000" stroke="none" 
	d="
M108.836220,113.410194 
	C107.528740,113.853821 106.167244,113.962608 104.400681,114.137718 
	C103.646965,113.683784 103.298317,113.163521 102.896164,112.321754 
	C102.874222,110.844643 102.905785,109.689049 102.932465,108.089157 
	C104.650543,107.856720 106.373505,108.068581 108.209961,108.294395 
	C108.388542,109.786407 108.585381,111.430878 108.836220,113.410194 
z"/>
</svg>